<svg xmlns="http://www.w3.org/2000/svg" version="1.1" viewBox="-5.0 -10.0 110.0 135.0">
 <path d="m36.078 32.539c-0.98047-0.98047-2.5586-0.98047-3.5391 0-0.98047 0.98047-0.98047 2.5586 0 3.5391l15.691 15.691c0.48828 0.48828 1.1289 0.73047 1.7695 0.73047s1.2812-0.23828 1.7695-0.73047c0.98047-0.98047 0.98047-2.5586 0-3.5391z"/>
 <path d="m50 12.5c-20.68 0-37.5 16.82-37.5 37.5s16.82 37.5 37.5 37.5 37.5-16.82 37.5-37.5-16.82-37.5-37.5-37.5zm0 70c-17.922 0-32.5-14.578-32.5-32.5s14.578-32.5 32.5-32.5 32.5 14.578 32.5 32.5-14.578 32.5-32.5 32.5z"/>
<text x="0.0" y="117.5" font-size="5.0" font-weight="bold" font-family="Arbeit Regular, Helvetica, Arial-Unicode, Arial, Sans-serif" fill="#000000">Created by SM Rony</text><text x="0.0" y="122.5" font-size="5.0" font-weight="bold" font-family="Arbeit Regular, Helvetica, Arial-Unicode, Arial, Sans-serif" fill="#000000">from Noun Project</text></svg>